<svg width="36" height="36" viewBox="0 0 36 36" fill="none" xmlns="http://www.w3.org/2000/svg">
<path d="M25.5219 7H15.3707V20.5793H28.9945V10.533C29 8.62553 27.4357 7 25.5219 7ZM12.2532 7H10.5502C8.63641 7 7 8.55366 7 10.5386V12.236H12.2532V7ZM7 15.4152H12.2532V20.6512H7V15.4152ZM23.7468 28.9945H25.4498C27.3636 28.9945 29 27.4408 29 25.4559V23.764H23.7468V28.9945ZM15.3707 23.764H20.6238V29H15.3707V23.764ZM7 23.764V25.4614C7 27.3689 8.55875 29 10.5502 29H12.2532V23.764H7Z" fill="black"/>
</svg>
