<svg width="36" height="36" viewBox="0 0 36 36" fill="none" xmlns="http://www.w3.org/2000/svg">
<path d="M10.3227 13.1261C14.5628 8.95796 21.4372 8.95796 25.6773 13.1261L26.1876 13.6278C26.3996 13.8362 26.3996 14.1741 26.1876 14.3825L24.442 16.0985C24.336 16.2027 24.1641 16.2027 24.0581 16.0985L23.3559 15.4082C20.3979 12.5004 15.6021 12.5004 12.6442 15.4082L11.8921 16.1475C11.7861 16.2517 11.6143 16.2517 11.5083 16.1475L9.76264 14.4314C9.55064 14.223 9.55064 13.8851 9.76264 13.6767L10.3227 13.1261ZM29.2874 16.675L30.841 18.2023C31.053 18.4107 31.053 18.7486 30.841 18.957L23.8357 25.8437C23.6237 26.0521 23.28 26.0521 23.068 25.8437C23.068 25.8437 23.068 25.8437 23.068 25.8437L18.096 20.956C18.043 20.9039 17.9571 20.9039 17.9041 20.956C17.9041 20.956 17.9041 20.956 17.9041 20.956L12.9322 25.8437C12.7202 26.0521 12.3765 26.0521 12.1645 25.8437C12.1645 25.8437 12.1645 25.8437 12.1645 25.8437L5.159 18.9569C4.947 18.7485 4.947 18.4106 5.159 18.2022L6.71261 16.675C6.92461 16.4666 7.26833 16.4666 7.48034 16.675L12.4524 21.5627C12.5054 21.6148 12.5913 21.6148 12.6443 21.5627C12.6443 21.5627 12.6443 21.5627 12.6443 21.5627L17.6161 16.675C17.8281 16.4665 18.1718 16.4665 18.3838 16.6749C18.3838 16.6749 18.3838 16.6749 18.3838 16.6749L23.3558 21.5627C23.4088 21.6148 23.4947 21.6148 23.5477 21.5627L28.5197 16.675C28.7317 16.4666 29.0754 16.4666 29.2874 16.675Z" fill="#419BF9"/>
</svg>
