<svg width="114" height="106" viewBox="0 0 114 106" fill="none" xmlns="http://www.w3.org/2000/svg">
  <g clip-path="url(#clip0)">
    <path d="M18.958 89.4013H2.04199C0.904972 89.4013 0 88.5033 0 87.375V70.5888C0 69.4605 0.904972 68.5625 2.04199 68.5625H18.958C20.095 68.5625 21 69.4605 21 70.5888V87.375C21 88.4803 20.0718 89.4013 18.958 89.4013Z" fill="#D3E9FF"/>
    <path d="M10.4884 86.0395C14.4227 86.0395 17.6121 82.8746 17.6121 78.9704C17.6121 75.0663 14.4227 71.9014 10.4884 71.9014C6.55404 71.9014 3.36462 75.0663 3.36462 78.9704C3.36462 82.8746 6.55404 86.0395 10.4884 86.0395Z" fill="#94C4F4"/>
    <path d="M12.8963 80.125C13.5058 80.125 13.9999 79.6346 13.9999 79.0298C13.9999 78.4249 13.5058 77.9346 12.8963 77.9346C12.2867 77.9346 11.7926 78.4249 11.7926 79.0298C11.7926 79.6346 12.2867 80.125 12.8963 80.125Z" fill="#3375BB"/>
    <path d="M8.46182 80.125C9.07136 80.125 9.56549 79.6346 9.56549 79.0298C9.56549 78.4249 9.07136 77.9346 8.46182 77.9346C7.85228 77.9346 7.35815 78.4249 7.35815 79.0298C7.35815 79.6346 7.85228 80.125 8.46182 80.125Z" fill="#3375BB"/>
  </g>
  <path d="M28.9766 77.3861C28.1476 65.6168 27.91 69.2489 28.9766 48.2617" stroke="#3375BB" stroke-width="3.88861" stroke-miterlimit="10" stroke-linecap="round" stroke-linejoin="round"/>
  <path d="M101.317 56.3039C101.317 56.3039 109.843 76.8465 85.0981 59.8903" stroke="#3375BB" stroke-width="3.63325" stroke-miterlimit="10" stroke-linecap="round" stroke-linejoin="round"/>
  <path d="M60.9364 89.2724C46.2272 89.2724 25.8433 69.4843 25.8433 42.3864C25.8433 19.615 32.5085 12.7834 38.2541 12.7834C43.9998 12.7834 43.7701 22.3475 51.5843 22.1197C59.3987 21.8919 57.5598 12.5557 66.0636 12.5557C74.7973 12.5557 73.1883 23.2583 78.0149 23.2583C86.5187 23.2583 86.2888 14.4912 94.1032 14.4912C103.986 14.4912 103.986 33.5054 103.986 41.2478C103.986 66.7518 82.3109 89.2724 60.9364 89.2724Z" fill="#94C4F4"/>
  <path opacity="0.5" d="M111.569 33.4443C110.004 33.4443 108.328 34.715 108.328 36.2852C108.328 37.8555 109.597 39.1261 111.164 39.1261C112.732 39.1261 114 38.2609 114 36.6907C114 35.123 113.136 33.4443 111.569 33.4443ZM111.164 38.0931C110.166 38.0931 109.359 37.2847 109.359 36.2852C109.359 35.2857 110.424 34.4774 111.422 34.4774C112.42 34.4774 112.969 35.544 112.969 36.5435C112.969 37.543 112.162 38.0931 111.164 38.0931Z" fill="#94C4F4"/>
  <path opacity="0.5" d="M53.9772 5.7627C52.4123 5.7627 50.7366 7.03334 50.7366 8.60358C50.7366 10.1738 52.005 11.4445 53.5724 11.4445C55.1399 11.4445 56.4083 10.5793 56.4083 9.00905C56.4083 7.4414 55.5446 5.7627 53.9772 5.7627ZM53.5724 10.4114C52.5747 10.4114 51.7678 9.60305 51.7678 8.60358C51.7678 7.6041 52.8325 6.79574 53.8302 6.79574C54.8279 6.79574 55.3771 7.86237 55.3771 8.86184C55.3771 9.86131 54.5701 10.4114 53.5724 10.4114Z" fill="#94C4F4"/>
  <path d="M89.9658 56.8086C87.1301 58.6992 81.0286 62.9529 81.0286 70.9939" stroke="#364851" stroke-width="2.17416" stroke-linecap="round" stroke-linejoin="round"/>
  <path d="M77.6771 74.9875L77.6771 71.3856C77.6771 70.9404 78.1232 70.5762 78.6684 70.5762L83.3028 70.5762C83.848 70.5762 84.2941 70.9404 84.2941 71.3856L84.2941 74.9875L77.6771 74.9875Z" fill="#3A4D57"/>
  <path d="M85.1517 79.9258L82.7158 79.9258L82.7158 88.3228C82.7158 89.018 83.2632 89.574 83.9474 89.5741C84.6317 89.5741 85.179 89.018 85.179 88.3228L85.179 79.9258L85.1517 79.9258Z" fill="#3A4D57"/>
  <path d="M79.7349 79.9219L77.2991 79.9219L77.2991 88.3189C77.2991 89.014 77.8465 89.5701 78.5307 89.5701C79.2149 89.5701 79.7623 89.014 79.7623 88.3189L79.7623 79.9219L79.7349 79.9219Z" fill="#3A4D57"/>
  <path d="M74.3687 83.8109L74.3687 77.2148C74.3687 75.9902 75.3716 74.9883 76.5975 74.9883L85.3738 74.9883C86.5996 74.9883 87.6026 75.9902 87.6026 77.2148L87.6026 83.8109L74.3687 83.8109Z" fill="#3A4D57"/>
  <path d="M98.0714 66.4844C95.391 66.0258 91.2843 64.1303 85.0981 59.8913" stroke="#3375BB" stroke-width="3.63325" stroke-miterlimit="10" stroke-linecap="round" stroke-linejoin="round"/>
  <path d="M39.552 33.9717C41.3086 31.9683 46.1433 28.4926 51.4285 30.6168" stroke="#3375BB" stroke-width="2.59241" stroke-miterlimit="10" stroke-linecap="round" stroke-linejoin="round"/>
  <path d="M79.8777 30.7943C82.5404 30.5054 88.4716 31.2065 90.8957 36.3217" stroke="#3375BB" stroke-width="2.59241" stroke-miterlimit="10" stroke-linecap="round" stroke-linejoin="round"/>
  <path d="M82.3288 44.68C80.4883 44.68 79.4723 43.2015 79.4723 41.3781C79.4723 39.5546 80.9645 38.0762 82.8049 38.0762C84.6453 38.0762 86.1375 40.0261 86.1375 41.8498C86.1375 43.6735 84.1695 44.68 82.3288 44.68Z" fill="#3375BB"/>
  <path d="M49.5259 41.9941C49.5259 43.7549 48.0854 44.7266 46.3082 44.7266C44.5311 44.7266 43.0906 43.2994 43.0906 41.5386C43.0906 39.7778 44.9909 38.3506 46.768 38.3506C48.5452 38.3506 49.5259 40.2334 49.5259 41.9941Z" fill="#3375BB"/>
  <path opacity="0.5" d="M84.8562 102.829C84.8562 104.56 72.8597 105.963 60.3382 105.963C47.8166 105.963 39.7747 104.299 39.7747 102.568C39.7747 100.837 51.7711 99.1719 64.2927 99.1719C76.8143 99.1719 84.8562 101.098 84.8562 102.829Z" fill="#94C4F4"/>
  <path opacity="0.5" d="M109.284 76.6853C109.284 77.6952 108.458 78.2526 107.439 78.2526C106.419 78.2526 105.593 77.434 105.593 76.4241C105.593 75.4143 106.683 74.5957 107.702 74.5957C108.721 74.5957 109.284 75.6755 109.284 76.6853Z" fill="#94C4F4"/>
  <path opacity="0.5" d="M104.541 8.15996C104.541 9.16978 103.715 9.72719 102.696 9.72719C101.676 9.72719 100.85 8.90857 100.85 7.89875C100.85 6.88893 101.94 6.07031 102.959 6.07031C103.978 6.07031 104.541 7.15014 104.541 8.15996Z" fill="#94C4F4"/>
  <path opacity="0.5" d="M20.3972 46.6092C20.3972 47.619 19.571 48.1764 18.5517 48.1764C17.5325 48.1764 16.7063 47.3578 16.7063 46.348C16.7063 45.3381 17.7962 44.5195 18.8154 44.5195C19.8346 44.5195 20.3972 45.5994 20.3972 46.6092Z" fill="#94C4F4"/>
  <path opacity="0.5" d="M33.134 5.11591C33.134 6.63064 31.998 7.46676 30.5966 7.46676C29.1951 7.46676 28.0591 6.23883 28.0591 4.7241C28.0591 3.20937 29.5576 1.98145 30.9591 1.98145C32.3605 1.98145 33.134 3.60118 33.134 5.11591Z" fill="#94C4F4"/>
  <path d="M16.4115 18.25L16.9161 26.0919" stroke="#D4E8FB" stroke-width="1.2962" stroke-miterlimit="10" stroke-linecap="round"/>
  <path d="M19.4263 19.9141L14.4948 24.6832" stroke="#D4E8FB" stroke-width="1.2962" stroke-miterlimit="10" stroke-linecap="round"/>
  <path d="M20.4058 23.4722L12.9222 20.8701" stroke="#D4E8FB" stroke-width="1.2962" stroke-miterlimit="10" stroke-linecap="round"/>
  <path d="M81.639 1.03613L82.1436 8.87804" stroke="#D4E8FB" stroke-width="1.2962" stroke-miterlimit="10" stroke-linecap="round"/>
  <path d="M84.6538 2.7002L79.7223 7.46928" stroke="#D4E8FB" stroke-width="1.2962" stroke-miterlimit="10" stroke-linecap="round"/>
  <path d="M85.6333 6.25838L78.1498 3.65625" stroke="#D4E8FB" stroke-width="1.2962" stroke-miterlimit="10" stroke-linecap="round"/>
  <rect x="60.8766" y="47.873" width="8.59717" height="3.62013" rx="1.81007" fill="#3375BB"/>
  <defs>
    <clipPath id="clip0">
      <rect width="21" height="21.4375" fill="white" transform="translate(0 68.5625)"/>
    </clipPath>
  </defs>
</svg>
