<svg width="120" height="120" viewBox="0 0 120 120" fill="none" xmlns="http://www.w3.org/2000/svg">
<g clip-path="url(#clip0)">
<path d="M7.71704 44.7793L8.23904 52.9816" stroke="#D4E8FB" stroke-width="1.38806" stroke-miterlimit="10" stroke-linecap="round"/>
<path d="M10.8358 46.5215L5.73413 51.5098" stroke="#D4E8FB" stroke-width="1.38806" stroke-miterlimit="10" stroke-linecap="round"/>
<path d="M11.8488 50.2413L4.10718 47.5195" stroke="#D4E8FB" stroke-width="1.38806" stroke-miterlimit="10" stroke-linecap="round"/>
<path d="M36.9296 82.4261C34.3968 87.0371 15.8169 92.8522 23.9944 68.2764" stroke="#3375BB" stroke-width="4.54032" stroke-miterlimit="10" stroke-linecap="round" stroke-linejoin="round"/>
<path d="M85.6241 82.1282C88.1569 86.7392 106.737 92.5544 98.5593 67.9785" stroke="#3375BB" stroke-width="4.54032" stroke-miterlimit="10" stroke-linecap="round" stroke-linejoin="round"/>
<path d="M57.3318 101.491C40.7408 101.491 17.749 78.9237 17.749 48.0201C17.749 22.0508 25.2669 14.2598 31.7476 14.2598C38.2283 14.2598 37.9693 25.167 46.7831 24.9072C55.5972 24.6474 53.5232 14 63.1149 14C72.9659 14 71.1511 26.2057 76.5952 26.2057C86.1869 26.2057 85.9276 16.2074 94.7417 16.2074C105.889 16.2074 105.889 37.8919 105.889 46.7216C105.889 75.8075 81.4407 101.491 57.3318 101.491Z" fill="#94C4F4"/>
<path opacity="0.5" d="M56.3535 3.2832C54.698 3.2832 52.9253 4.6274 52.9253 6.28852C52.9253 7.94964 54.2671 9.29384 55.9253 9.29384C57.5835 9.29384 58.9253 8.37859 58.9253 6.71747C58.9253 5.05908 58.0117 3.2832 56.3535 3.2832ZM55.9253 8.201C54.8698 8.201 54.0162 7.34585 54.0162 6.28852C54.0162 5.2312 55.1426 4.37605 56.198 4.37605C57.2535 4.37605 57.8344 5.50441 57.8344 6.56173C57.8344 7.61906 56.9807 8.201 55.9253 8.201Z" fill="#94C4F4"/>
<path d="M79.3796 74.532C81.9124 79.1429 96.3292 96.129 100.641 79.5962" stroke="#3375BB" stroke-width="4.54032" stroke-miterlimit="10" stroke-linecap="round" stroke-linejoin="round"/>
<path d="M69.8931 62.9519H74.4569C75.4599 62.9519 76.2731 62.1388 76.2731 61.1358V57.0686C76.2731 54.8624 77.46 54.127 79.2405 54.127C79.5886 54.127 79.9368 54.3069 80.072 54.5964C80.1489 54.7613 80.1575 54.949 80.2114 55.1228C80.5868 56.3335 82.1818 61.4679 83.0784 64.1873C83.3924 65.1399 83.6917 66.7067 83.6917 67.7097V75.8441C83.6917 76.8471 82.8785 77.6602 81.8755 77.6602H70.9317C69.0028 77.6602 67.3707 76.1894 67.074 74.2773L65.887 67.5115C65.7458 66.3913 66.0079 65.2712 66.6735 64.5317C66.7405 64.4572 66.8059 64.3811 66.868 64.3025C67.6137 63.3587 68.7534 62.9519 69.8931 62.9519Z" fill="#3375BB"/>
<path d="M43.1741 74.8298C40.6413 79.4408 26.2245 96.4269 21.9128 79.894" stroke="#3375BB" stroke-width="4.54032" stroke-miterlimit="10" stroke-linecap="round" stroke-linejoin="round"/>
<path d="M52.6611 63.2498H48.0973C47.0942 63.2498 46.2811 62.4367 46.2811 61.4336V57.3665C46.2811 55.1602 45.0942 54.4248 43.3137 54.4248C42.9656 54.4248 42.6174 54.6048 42.4822 54.8943C42.4053 55.0592 42.3967 55.2469 42.3428 55.4207C41.9674 56.6314 40.3724 61.7657 39.4758 64.4851C39.1618 65.4377 38.8625 67.0045 38.8625 68.0075V76.1419C38.8625 77.1449 39.6757 77.958 40.6787 77.958H51.6225C53.5514 77.958 55.1835 76.4872 55.4802 74.5751L56.6672 67.8093C56.8084 66.6892 56.5463 65.569 55.8807 64.8296C55.8137 64.7551 55.7483 64.679 55.6862 64.6004C54.9405 63.6566 53.8008 63.2498 52.6611 63.2498Z" fill="#3375BB"/>
<path d="M86.9621 40.1256C86.9621 42.4289 85.0983 43.7003 82.7991 43.7003C80.4999 43.7003 78.636 41.8331 78.636 39.5298C78.636 37.2265 81.0946 35.3594 83.3938 35.3594C85.693 35.3594 86.9621 37.8223 86.9621 40.1256Z" fill="#3375BB"/>
<path d="M46.8186 40.1256C46.8186 42.4289 44.9547 43.7003 42.6555 43.7003C40.3563 43.7003 38.4924 41.8331 38.4924 39.5298C38.4924 37.2265 40.951 35.3594 43.2502 35.3594C45.5494 35.3594 46.8186 37.8223 46.8186 40.1256Z" fill="#3375BB"/>
<mask id="mask0" mask-type="alpha" maskUnits="userSpaceOnUse" x="50" y="41" width="26" height="14">
<path d="M63.1735 54.1265C69.9069 54.1265 75.3654 48.6584 75.3654 41.9131H50.9817C50.9817 48.6584 56.4402 54.1265 63.1735 54.1265Z" fill="#052B3E"/>
</mask>
<g mask="url(#mask0)">
<path d="M62.5788 54.4234C69.3122 54.4234 74.7706 48.9553 74.7706 42.21H50.387C50.387 48.9553 55.8454 54.4234 62.5788 54.4234Z" fill="#3375BB"/>
<path fill-rule="evenodd" clip-rule="evenodd" d="M63.0246 56.9171C62.4137 57.4076 61.6383 57.7011 60.7944 57.7011C58.8237 57.7011 57.2261 56.1007 57.2261 54.1264C57.2261 52.1522 58.8237 50.5518 60.7944 50.5518C61.6383 50.5518 62.4137 50.8452 63.0246 51.3358C63.6355 50.8452 64.411 50.5518 65.2549 50.5518C67.2256 50.5518 68.8232 52.1522 68.8232 54.1264C68.8232 56.1007 67.2256 57.7011 65.2549 57.7011C64.411 57.7011 63.6355 57.4076 63.0246 56.9171Z" fill="#E56C58"/>
</g>
<path opacity="0.5" d="M84.3919 115.79C84.3919 117.764 70.8607 119.364 56.7372 119.364C42.6137 119.364 33.543 117.466 33.543 115.492C33.543 113.518 47.0741 111.619 61.1976 111.619C75.3211 111.619 84.3919 113.815 84.3919 115.79Z" fill="#94C4F4"/>
<path opacity="0.5" d="M5.74348 26.4738C5.74348 27.53 4.88875 28.113 3.83438 28.113C2.78002 28.113 1.92529 27.2568 1.92529 26.2006C1.92529 25.1443 3.05275 24.2881 4.10711 24.2881C5.16148 24.2881 5.74348 25.4175 5.74348 26.4738Z" fill="#94C4F4"/>
<path opacity="0.5" d="M118.925 58.713C118.925 59.7693 118.071 60.3523 117.016 60.3523C115.962 60.3523 115.107 59.4961 115.107 58.4398C115.107 57.3836 116.235 56.5273 117.289 56.5273C118.343 56.5273 118.925 57.6568 118.925 58.713Z" fill="#94C4F4"/>
<path opacity="0.5" d="M32 3.42857C32 5.08543 30.6569 6 29 6C27.3431 6 26 4.65686 26 3C26 1.34314 27.7717 0 29.4286 0C31.0854 0 32 1.77171 32 3.42857Z" fill="#94C4F4"/>
<path opacity="0.5" d="M116.353 21.2832C114.698 21.2832 112.925 22.6274 112.925 24.2885C112.925 25.9496 114.267 27.2938 115.925 27.2938C117.583 27.2938 118.925 26.3786 118.925 24.7175C118.925 23.0591 118.012 21.2832 116.353 21.2832ZM115.925 26.201C114.87 26.201 114.016 25.3458 114.016 24.2885C114.016 23.2312 115.143 22.376 116.198 22.376C117.253 22.376 117.834 23.5044 117.834 24.5617C117.834 25.6191 116.981 26.201 115.925 26.201Z" fill="#94C4F4"/>
<path d="M82.9895 0.34375L83.5115 8.54609" stroke="#D4E8FB" stroke-width="1.38806" stroke-miterlimit="10" stroke-linecap="round"/>
<path d="M86.1082 2.08594L81.0066 7.07422" stroke="#D4E8FB" stroke-width="1.38806" stroke-miterlimit="10" stroke-linecap="round"/>
<path d="M87.1215 5.80571L79.3799 3.08398" stroke="#D4E8FB" stroke-width="1.38806" stroke-miterlimit="10" stroke-linecap="round"/>
</g>
<defs>
<clipPath id="clip0">
<rect width="120" height="120" fill="white"/>
</clipPath>
</defs>
</svg>
