<svg width="184" height="36" viewBox="0 0 184 36" fill="none" xmlns="http://www.w3.org/2000/svg">
<g clip-path="url(#clip0)">
<rect width="36.0179" height="36.0179" rx="12.3087" fill="white"/>
<path d="M18.1521 8.27948C21.7268 11.0531 25.8262 10.8821 26.9974 10.8821C26.7412 26.6564 24.7891 24.5548 18.1521 28.9779C11.515 24.5548 9.57518 26.6564 9.31897 10.8821C10.478 10.8821 14.5774 11.0531 18.1521 8.27948Z" stroke="#3375BB" stroke-width="2.34116" stroke-miterlimit="10" stroke-linecap="round" stroke-linejoin="round"/>
</g>
<path d="M51.104 14.776H47.072V12.4H58.052V14.776H54.02V25H51.104V14.776ZM61.894 16.594C62.23 16.126 62.68 15.772 63.244 15.532C63.82 15.292 64.48 15.172 65.224 15.172V17.764C64.912 17.74 64.702 17.728 64.594 17.728C63.79 17.728 63.16 17.956 62.704 18.412C62.248 18.856 62.02 19.528 62.02 20.428V25H59.212V15.316H61.894V16.594ZM76.72 15.316V25H74.056V23.848C73.684 24.268 73.24 24.592 72.724 24.82C72.208 25.036 71.65 25.144 71.05 25.144C69.778 25.144 68.77 24.778 68.026 24.046C67.282 23.314 66.91 22.228 66.91 20.788V15.316H69.718V20.374C69.718 21.934 70.372 22.714 71.68 22.714C72.352 22.714 72.892 22.498 73.3 22.066C73.708 21.622 73.912 20.968 73.912 20.104V15.316H76.72ZM82.5794 25.144C81.7754 25.144 80.9894 25.048 80.2214 24.856C79.4534 24.652 78.8414 24.4 78.3854 24.1L79.3214 22.084C79.7534 22.36 80.2754 22.588 80.8874 22.768C81.4994 22.936 82.0994 23.02 82.6874 23.02C83.8754 23.02 84.4694 22.726 84.4694 22.138C84.4694 21.862 84.3074 21.664 83.9834 21.544C83.6594 21.424 83.1614 21.322 82.4894 21.238C81.6974 21.118 81.0434 20.98 80.5274 20.824C80.0114 20.668 79.5614 20.392 79.1774 19.996C78.8054 19.6 78.6194 19.036 78.6194 18.304C78.6194 17.692 78.7934 17.152 79.1414 16.684C79.5014 16.204 80.0174 15.832 80.6894 15.568C81.3734 15.304 82.1774 15.172 83.1014 15.172C83.7854 15.172 84.4634 15.25 85.1354 15.406C85.8194 15.55 86.3834 15.754 86.8274 16.018L85.8914 18.016C85.0394 17.536 84.1094 17.296 83.1014 17.296C82.5014 17.296 82.0514 17.38 81.7514 17.548C81.4514 17.716 81.3014 17.932 81.3014 18.196C81.3014 18.496 81.4634 18.706 81.7874 18.826C82.1114 18.946 82.6274 19.06 83.3354 19.168C84.1274 19.3 84.7754 19.444 85.2794 19.6C85.7834 19.744 86.2214 20.014 86.5934 20.41C86.9654 20.806 87.1514 21.358 87.1514 22.066C87.1514 22.666 86.9714 23.2 86.6114 23.668C86.2514 24.136 85.7234 24.502 85.0274 24.766C84.3434 25.018 83.5274 25.144 82.5794 25.144ZM95.1299 24.532C94.8539 24.736 94.5119 24.892 94.1039 25C93.7079 25.096 93.2879 25.144 92.8439 25.144C91.6919 25.144 90.7979 24.85 90.1619 24.262C89.5379 23.674 89.2259 22.81 89.2259 21.67V17.692H87.7319V15.532H89.2259V13.174H92.0339V15.532H94.4459V17.692H92.0339V21.634C92.0339 22.042 92.1359 22.36 92.3399 22.588C92.5559 22.804 92.8559 22.912 93.2399 22.912C93.6839 22.912 94.0619 22.792 94.3739 22.552L95.1299 24.532ZM107.456 12.4C108.572 12.4 109.538 12.586 110.354 12.958C111.182 13.33 111.818 13.858 112.262 14.542C112.706 15.226 112.928 16.036 112.928 16.972C112.928 17.896 112.706 18.706 112.262 19.402C111.818 20.086 111.182 20.614 110.354 20.986C109.538 21.346 108.572 21.526 107.456 21.526H104.918V25H102.002V12.4H107.456ZM107.294 19.15C108.17 19.15 108.836 18.964 109.292 18.592C109.748 18.208 109.976 17.668 109.976 16.972C109.976 16.264 109.748 15.724 109.292 15.352C108.836 14.968 108.17 14.776 107.294 14.776H104.918V19.15H107.294ZM114.987 11.644H117.795V25H114.987V11.644ZM124.307 15.172C125.807 15.172 126.959 15.532 127.763 16.252C128.567 16.96 128.969 18.034 128.969 19.474V25H126.341V23.794C125.813 24.694 124.829 25.144 123.389 25.144C122.645 25.144 121.997 25.018 121.445 24.766C120.905 24.514 120.491 24.166 120.203 23.722C119.915 23.278 119.771 22.774 119.771 22.21C119.771 21.31 120.107 20.602 120.779 20.086C121.463 19.57 122.513 19.312 123.929 19.312H126.161C126.161 18.7 125.975 18.232 125.603 17.908C125.231 17.572 124.673 17.404 123.929 17.404C123.413 17.404 122.903 17.488 122.399 17.656C121.907 17.812 121.487 18.028 121.139 18.304L120.131 16.342C120.659 15.97 121.289 15.682 122.021 15.478C122.765 15.274 123.527 15.172 124.307 15.172ZM124.091 23.254C124.571 23.254 124.997 23.146 125.369 22.93C125.741 22.702 126.005 22.372 126.161 21.94V20.95H124.235C123.083 20.95 122.507 21.328 122.507 22.084C122.507 22.444 122.645 22.732 122.921 22.948C123.209 23.152 123.599 23.254 124.091 23.254ZM137.757 24.532C137.481 24.736 137.139 24.892 136.731 25C136.335 25.096 135.915 25.144 135.471 25.144C134.319 25.144 133.425 24.85 132.789 24.262C132.165 23.674 131.853 22.81 131.853 21.67V17.692H130.359V15.532H131.853V13.174H134.661V15.532H137.073V17.692H134.661V21.634C134.661 22.042 134.763 22.36 134.967 22.588C135.183 22.804 135.483 22.912 135.867 22.912C136.311 22.912 136.689 22.792 137.001 22.552L137.757 24.532ZM142.411 15.532H144.895V17.692H142.483V25H139.675V17.692H138.181V15.532H139.675V15.1C139.675 13.996 139.999 13.12 140.647 12.472C141.307 11.824 142.231 11.5 143.419 11.5C143.839 11.5 144.235 11.548 144.607 11.644C144.991 11.728 145.309 11.854 145.561 12.022L144.823 14.056C144.499 13.828 144.121 13.714 143.689 13.714C142.837 13.714 142.411 14.182 142.411 15.118V15.532ZM150.779 25.144C149.759 25.144 148.841 24.934 148.025 24.514C147.221 24.082 146.591 23.488 146.135 22.732C145.679 21.976 145.451 21.118 145.451 20.158C145.451 19.198 145.679 18.34 146.135 17.584C146.591 16.828 147.221 16.24 148.025 15.82C148.841 15.388 149.759 15.172 150.779 15.172C151.799 15.172 152.711 15.388 153.515 15.82C154.319 16.24 154.949 16.828 155.405 17.584C155.861 18.34 156.089 19.198 156.089 20.158C156.089 21.118 155.861 21.976 155.405 22.732C154.949 23.488 154.319 24.082 153.515 24.514C152.711 24.934 151.799 25.144 150.779 25.144ZM150.779 22.84C151.499 22.84 152.087 22.6 152.543 22.12C153.011 21.628 153.245 20.974 153.245 20.158C153.245 19.342 153.011 18.694 152.543 18.214C152.087 17.722 151.499 17.476 150.779 17.476C150.059 17.476 149.465 17.722 148.997 18.214C148.529 18.694 148.295 19.342 148.295 20.158C148.295 20.974 148.529 21.628 148.997 22.12C149.465 22.6 150.059 22.84 150.779 22.84ZM160.648 16.594C160.984 16.126 161.434 15.772 161.998 15.532C162.574 15.292 163.234 15.172 163.978 15.172V17.764C163.666 17.74 163.456 17.728 163.348 17.728C162.544 17.728 161.914 17.956 161.458 18.412C161.002 18.856 160.774 19.528 160.774 20.428V25H157.966V15.316H160.648V16.594ZM178.05 15.172C179.262 15.172 180.222 15.532 180.93 16.252C181.65 16.96 182.01 18.028 182.01 19.456V25H179.202V19.888C179.202 19.12 179.04 18.55 178.716 18.178C178.404 17.794 177.954 17.602 177.366 17.602C176.706 17.602 176.184 17.818 175.8 18.25C175.416 18.67 175.224 19.3 175.224 20.14V25H172.416V19.888C172.416 18.364 171.804 17.602 170.58 17.602C169.932 17.602 169.416 17.818 169.032 18.25C168.648 18.67 168.456 19.3 168.456 20.14V25H165.648V15.316H168.33V16.432C168.69 16.024 169.128 15.712 169.644 15.496C170.172 15.28 170.748 15.172 171.372 15.172C172.056 15.172 172.674 15.31 173.226 15.586C173.778 15.85 174.222 16.24 174.558 16.756C174.954 16.252 175.452 15.862 176.052 15.586C176.664 15.31 177.33 15.172 178.05 15.172Z" fill="white"/>
<defs>
<clipPath id="clip0">
<rect width="36.0179" height="36" fill="white"/>
</clipPath>
</defs>
</svg>
