<svg width="50" height="75" fill="none" xmlns="http://www.w3.org/2000/svg"><rect width="50" height="50" rx="25" fill="#3375BB"/><path d="M9.586 68.62h1.288c.042.419.24.766.59 1.04.352.272.83.407 1.435.407.576 0 1.03-.127 1.365-.381.334-.254.501-.599.501-1.035 0-.338-.112-.609-.336-.812-.22-.203-.572-.364-1.054-.483l-1.46-.368a3.84 3.84 0 01-.787-.285 3.114 3.114 0 01-.66-.445 1.926 1.926 0 01-.47-.673 2.392 2.392 0 01-.165-.907c0-.53.144-.988.432-1.378a2.634 2.634 0 011.123-.876 3.97 3.97 0 011.524-.285c.546 0 1.045.093 1.498.279.453.182.825.465 1.117.85.292.386.442.843.45 1.372h-1.263a1.442 1.442 0 00-.526-1.01c-.31-.262-.741-.393-1.295-.393-.525 0-.948.12-1.27.362-.317.237-.476.565-.476.983 0 .61.404 1.012 1.213 1.207l1.447.368c.275.067.522.146.742.235.22.089.428.2.623.336a1.933 1.933 0 01.8 1.047c.075.229.114.485.114.768 0 .83-.307 1.477-.92 1.943-.61.461-1.404.692-2.381.692-.453 0-.864-.053-1.232-.159a2.864 2.864 0 01-.907-.406 2.552 2.552 0 01-.597-.59 2.479 2.479 0 01-.35-.692 2.9 2.9 0 01-.113-.711zm7.274-3.25v-1.035h.933v-1.676h1.264v1.676h1.314v1.035h-1.314v3.688c0 .376.074.632.222.768.152.13.427.197.825.197.093 0 .195-.005.305-.013v.996c-.17.03-.377.045-.622.045a3.81 3.81 0 01-.99-.108 1.286 1.286 0 01-.617-.362 1.392 1.392 0 01-.31-.59 3.59 3.59 0 01-.09-.87V65.37h-.92zm4.291 3.713c0-.6.204-1.077.61-1.428.41-.356.992-.533 1.745-.533h1.72v-.75c0-.74-.431-1.11-1.294-1.11-.8 0-1.234.334-1.301 1.003h-1.232c.03-.627.256-1.126.68-1.498.427-.377 1.061-.565 1.904-.565.795 0 1.415.177 1.86.533.444.355.666.906.666 1.65V71H25.29v-.876h-.044a2.035 2.035 0 01-.743.711c-.317.182-.707.273-1.168.273-.652 0-1.178-.184-1.58-.552-.402-.368-.604-.86-.604-1.473zm1.295-.064c0 .347.121.614.362.8.246.182.546.273.902.273.431 0 .79-.129 1.079-.387.292-.262.438-.586.438-.971v-.705h-1.543c-.41 0-.72.09-.927.267-.207.178-.31.419-.31.723zM28.077 71v-9.122h1.282v5.383h.057l2.578-2.951h1.466l-2.571 2.9L33.631 71h-1.517l-2.177-3.022-.578.597V71h-1.282zm5.751-3.028v-.59c0-.965.246-1.737.737-2.317.495-.58 1.193-.87 2.094-.87.91 0 1.606.29 2.089.87.486.576.73 1.344.73 2.304v.584h-4.374v.19c0 .542.138.997.413 1.365.279.364.685.546 1.218.546.411 0 .728-.089.953-.266a1.17 1.17 0 00.431-.673h1.276a2.137 2.137 0 01-.222.685c-.11.22-.267.432-.47.635-.199.203-.467.368-.806.495a3.377 3.377 0 01-1.155.184c-.94 0-1.661-.283-2.165-.85-.5-.567-.749-1.331-.749-2.292zm1.276-.958h3.11v-.02c0-.52-.14-.943-.419-1.269-.279-.33-.657-.495-1.136-.495-.478 0-.857.165-1.136.495-.28.33-.419.753-.419 1.27v.019z" fill="#3375BB"/><path d="M25 28.32V16m6 18H19m1-11.84L25 16l5 6.16" stroke="#fff" stroke-width="1.5" stroke-miterlimit="10" stroke-linecap="round" stroke-linejoin="round"/></svg>