<svg width="53" height="75" fill="none" xmlns="http://www.w3.org/2000/svg"><path d="M2 25C2 11.193 13.193 0 27 0s25 11.193 25 25-11.193 25-25 25S2 38.807 2 25z" fill="#3375BB"/><path d="M27 16v12.706M33 34H21m1-11.647l5 6.353 5-6.353" stroke="#fff" stroke-width="1.5" stroke-miterlimit="10" stroke-linecap="round" stroke-linejoin="round"/><path d="M.486 62.335h1.48l1.51 6.583h.044l1.657-6.583h1.257l1.65 6.583h.051l1.511-6.583h1.473L8.764 71H7.577l-1.752-6.538H5.78L4.028 71H2.841L.486 62.335zm11.693.87a.714.714 0 01-.222-.533c0-.212.074-.387.222-.527.152-.14.34-.21.565-.21.237 0 .43.07.578.21a.672.672 0 01.228.527.692.692 0 01-.229.533.808.808 0 01-.577.21.805.805 0 01-.565-.21zM12.115 71v-6.69h1.276V71h-1.276zm2.425-5.63v-1.035h.934v-1.676h1.263v1.676h1.314v1.035h-1.314v3.688c0 .376.074.632.222.768.152.13.427.197.825.197.093 0 .195-.005.305-.013v.996c-.17.03-.377.045-.622.045a3.81 3.81 0 01-.99-.108 1.286 1.286 0 01-.616-.362 1.392 1.392 0 01-.311-.59 3.59 3.59 0 01-.09-.87V65.37h-.92zM19.22 71v-9.122h1.282v3.34h.051c.114-.267.328-.502.641-.705.313-.208.72-.311 1.219-.311.736 0 1.326.239 1.77.717.45.478.674 1.107.674 1.885V71h-1.283v-3.916c0-.542-.13-.97-.393-1.283-.262-.313-.633-.47-1.11-.47-.492 0-.877.153-1.156.458-.275.304-.413.736-.413 1.294V71H19.22zm6.881-2.945v-.806c0-.919.226-1.655.68-2.21.452-.558 1.091-.837 1.916-.837.5 0 .916.1 1.25.298.34.195.568.444.686.749h.038v-3.37h1.283V71h-1.238v-1.016h-.045c-.089.305-.31.567-.666.788-.356.215-.791.323-1.308.323-.83 0-1.47-.275-1.923-.825-.449-.55-.673-1.289-.673-2.215zm1.301-.172c0 .665.138 1.19.413 1.575.275.38.683.57 1.225.57.512 0 .912-.185 1.2-.558.287-.372.431-.897.431-1.574v-.52c0-.648-.148-1.158-.444-1.53-.292-.377-.696-.565-1.212-.565-.534 0-.936.192-1.206.577-.271.385-.407.904-.407 1.556v.47zM33.667 71v-6.69h1.276v.825h.044a1.81 1.81 0 01.178-.318c.068-.093.16-.19.28-.292.122-.101.28-.18.475-.235.2-.055.43-.082.692-.082.157 0 .305.01.444.032v1.149a2.967 2.967 0 00-.57-.038c-1.017 0-1.524.529-1.524 1.587V71h-1.295zm3.847-1.917c0-.6.203-1.077.61-1.428.41-.356.991-.533 1.745-.533h1.72v-.75c0-.74-.432-1.11-1.295-1.11-.8 0-1.234.334-1.301 1.003H37.76c.03-.627.256-1.126.68-1.498.427-.377 1.062-.565 1.904-.565.795 0 1.415.177 1.86.533.444.355.666.906.666 1.65V71h-1.219v-.876h-.044a2.036 2.036 0 01-.743.711c-.317.182-.707.273-1.168.273-.651 0-1.178-.184-1.58-.552-.402-.368-.603-.86-.603-1.473zm1.295-.064c0 .347.12.614.361.8.246.182.546.273.902.273.431 0 .791-.129 1.079-.387.292-.262.438-.586.438-.971v-.705h-1.543c-.41 0-.719.09-.926.267-.208.178-.311.419-.311.723zm4.729-4.71h1.403l1.123 5.174h.057l1.403-5.173h1.206l1.448 5.173h.05l1.156-5.173h1.276L50.889 71h-1.29l-1.453-5.027h-.032L46.694 71H45.39l-1.853-6.69z" fill="#3375BB"/></svg>