<svg width="203" height="163" viewBox="0 0 203 163" fill="none" xmlns="http://www.w3.org/2000/svg">
<g clip-path="url(#clip0)">
<path d="M48.717 44.7795L49.239 52.9819" stroke="#D4E8FB" stroke-width="1.38806" stroke-miterlimit="10" stroke-linecap="round"/>
<path d="M51.8358 46.5212L46.7341 51.5095" stroke="#D4E8FB" stroke-width="1.38806" stroke-miterlimit="10" stroke-linecap="round"/>
<path d="M52.8488 50.2415L45.1072 47.5198" stroke="#D4E8FB" stroke-width="1.38806" stroke-miterlimit="10" stroke-linecap="round"/>
<path d="M77.9296 82.4263C75.3968 87.0373 56.8169 92.8525 64.9944 68.2766" stroke="#3375BB" stroke-width="4.54032" stroke-miterlimit="10" stroke-linecap="round" stroke-linejoin="round"/>
<path d="M126.624 82.1282C129.157 86.7392 147.737 92.5544 139.559 67.9785" stroke="#3375BB" stroke-width="4.54032" stroke-miterlimit="10" stroke-linecap="round" stroke-linejoin="round"/>
<path d="M98.3318 101.491C81.7408 101.491 58.749 78.9237 58.749 48.0201C58.749 22.0508 66.2669 14.2598 72.7476 14.2598C79.2283 14.2598 78.9693 25.167 87.7831 24.9072C96.5972 24.6474 94.5232 14 104.115 14C113.966 14 112.151 26.2057 117.595 26.2057C127.187 26.2057 126.928 16.2074 135.742 16.2074C146.889 16.2074 146.889 37.8919 146.889 46.7216C146.889 75.8075 122.441 101.491 98.3318 101.491Z" fill="#94C4F4"/>
<path d="M120.38 74.532C122.912 79.1429 137.329 96.129 141.641 79.5962" stroke="#3375BB" stroke-width="4.54032" stroke-miterlimit="10" stroke-linecap="round" stroke-linejoin="round"/>
<path d="M110.893 62.9517H115.457C116.46 62.9517 117.273 62.1386 117.273 61.1355V57.0684C117.273 54.8621 118.46 54.1267 120.24 54.1267C120.589 54.1267 120.937 54.3067 121.072 54.5962C121.149 54.7611 121.158 54.9488 121.211 55.1226C121.587 56.3333 123.182 61.4676 124.078 64.187C124.392 65.1396 124.692 66.7064 124.692 67.7095V75.8438C124.692 76.8468 123.879 77.6599 122.876 77.6599H111.932C110.003 77.6599 108.371 76.1891 108.074 74.277L106.887 67.5112C106.746 66.3911 107.008 65.2709 107.673 64.5315C107.74 64.457 107.806 64.3809 107.868 64.3023C108.614 63.3585 109.753 62.9517 110.893 62.9517Z" fill="#3375BB"/>
<path d="M84.1741 74.8298C81.6413 79.4408 67.2245 96.4269 62.9128 79.894" stroke="#3375BB" stroke-width="4.54032" stroke-miterlimit="10" stroke-linecap="round" stroke-linejoin="round"/>
<path d="M93.6611 63.2495H89.0973C88.0942 63.2495 87.2811 62.4364 87.2811 61.4334V57.3662C87.2811 55.16 86.0942 54.4246 84.3137 54.4246C83.9656 54.4246 83.6174 54.6045 83.4822 54.8941C83.4053 55.0589 83.3967 55.2466 83.3428 55.4204C82.9674 56.6312 81.3724 61.7655 80.4758 64.4849C80.1618 65.4375 79.8625 67.0043 79.8625 68.0073V76.1417C79.8625 77.1447 80.6757 77.9578 81.6787 77.9578H92.6225C94.5514 77.9578 96.1835 76.487 96.4802 74.5749L97.6672 67.8091C97.8084 66.6889 97.5463 65.5688 96.8807 64.8293C96.8137 64.7549 96.7483 64.6787 96.6862 64.6001C95.9405 63.6563 94.8008 63.2495 93.6611 63.2495Z" fill="#3375BB"/>
<path d="M127.962 40.1261C127.962 42.4294 126.098 43.7008 123.799 43.7008C121.5 43.7008 119.636 41.8336 119.636 39.5303C119.636 37.227 122.095 35.3599 124.394 35.3599C126.693 35.3599 127.962 37.8228 127.962 40.1261Z" fill="#3375BB"/>
<path d="M87.8186 40.1261C87.8186 42.4294 85.9547 43.7008 83.6555 43.7008C81.3563 43.7008 79.4924 41.8336 79.4924 39.5303C79.4924 37.227 81.951 35.3599 84.2502 35.3599C86.5494 35.3599 87.8186 37.8228 87.8186 40.1261Z" fill="#3375BB"/>
<mask id="mask0" mask-type="alpha" maskUnits="userSpaceOnUse" x="91" y="41" width="26" height="14">
<path d="M104.174 54.1265C110.907 54.1265 116.365 48.6584 116.365 41.9131H91.9817C91.9817 48.6584 97.4402 54.1265 104.174 54.1265Z" fill="#052B3E"/>
</mask>
<g mask="url(#mask0)">
<path d="M103.579 54.4239C110.312 54.4239 115.771 48.9558 115.771 42.2104H91.387C91.387 48.9558 96.8454 54.4239 103.579 54.4239Z" fill="#3375BB"/>
<path fill-rule="evenodd" clip-rule="evenodd" d="M104.025 56.9171C103.414 57.4076 102.638 57.7011 101.794 57.7011C99.8237 57.7011 98.2261 56.1007 98.2261 54.1264C98.2261 52.1522 99.8237 50.5518 101.794 50.5518C102.638 50.5518 103.414 50.8452 104.025 51.3358C104.636 50.8452 105.411 50.5518 106.255 50.5518C108.226 50.5518 109.823 52.1522 109.823 54.1264C109.823 56.1007 108.226 57.7011 106.255 57.7011C105.411 57.7011 104.636 57.4076 104.025 56.9171Z" fill="#E56C58"/>
</g>
<path opacity="0.5" d="M125.392 115.79C125.392 117.764 111.861 119.364 97.7372 119.364C83.6137 119.364 74.543 117.466 74.543 115.492C74.543 113.518 88.0741 111.619 102.198 111.619C116.321 111.619 125.392 113.815 125.392 115.79Z" fill="#94C4F4"/>
<path opacity="0.5" d="M46.7435 26.4745C46.7435 27.5307 45.8887 28.1138 44.8344 28.1138C43.78 28.1138 42.9253 27.2575 42.9253 26.2013C42.9253 25.1451 44.0527 24.2888 45.1071 24.2888C46.1615 24.2888 46.7435 25.4183 46.7435 26.4745Z" fill="#94C4F4"/>
<path opacity="0.5" d="M159.925 58.7133C159.925 59.7695 159.071 60.3525 158.016 60.3525C156.962 60.3525 156.107 59.4963 156.107 58.4401C156.107 57.3838 157.235 56.5276 158.289 56.5276C159.343 56.5276 159.925 57.657 159.925 58.7133Z" fill="#94C4F4"/>
<path opacity="0.5" d="M157.353 21.2834C155.698 21.2834 153.925 22.6276 153.925 24.2888C153.925 25.9499 155.267 27.2941 156.925 27.2941C158.583 27.2941 159.925 26.3788 159.925 24.7177C159.925 23.0593 159.012 21.2834 157.353 21.2834ZM156.925 26.2012C155.87 26.2012 155.016 25.3461 155.016 24.2888C155.016 23.2314 156.143 22.3763 157.198 22.3763C158.253 22.3763 158.834 23.5047 158.834 24.562C158.834 25.6193 157.981 26.2012 156.925 26.2012Z" fill="#94C4F4"/>
<path d="M119.99 0.344238L120.512 8.54658" stroke="#D4E8FB" stroke-width="1.38806" stroke-miterlimit="10" stroke-linecap="round"/>
<path d="M123.108 2.08594L118.007 7.07422" stroke="#D4E8FB" stroke-width="1.38806" stroke-miterlimit="10" stroke-linecap="round"/>
<path d="M124.122 5.8062L116.38 3.08447" stroke="#D4E8FB" stroke-width="1.38806" stroke-miterlimit="10" stroke-linecap="round"/>
</g>
<path d="M0.359337 146.012H1.87106L5.00875 151.435H5.0527L8.20797 146.012H9.71969L5.68551 152.727V158H4.38473V152.727L0.359337 146.012ZM9.36848 153.808V152.981C9.36848 152.349 9.44758 151.771 9.60578 151.25C9.76985 150.729 10.0071 150.274 10.3177 149.888C10.6341 149.495 11.0413 149.19 11.5394 148.974C12.0433 148.757 12.6175 148.648 13.262 148.648C14.5394 148.648 15.5062 149.038 16.1624 149.817C16.8187 150.597 17.1468 151.651 17.1468 152.981V153.808C17.1468 155.144 16.8187 156.201 16.1624 156.98C15.5062 157.76 14.5394 158.149 13.262 158.149C11.9847 158.149 11.015 157.76 10.3529 156.98C9.6966 156.201 9.36848 155.144 9.36848 153.808ZM10.6517 153.667C10.6517 154.675 10.8597 155.483 11.2757 156.093C11.6976 156.696 12.3597 156.998 13.262 156.998C13.7249 156.998 14.1263 156.913 14.4661 156.743C14.806 156.573 15.0726 156.336 15.2659 156.031C15.4652 155.721 15.6116 155.372 15.7054 154.985C15.7991 154.593 15.846 154.153 15.846 153.667V153.131C15.846 152.656 15.7991 152.226 15.7054 151.839C15.6116 151.446 15.4652 151.092 15.2659 150.775C15.0726 150.459 14.806 150.216 14.4661 150.046C14.1263 149.87 13.7249 149.782 13.262 149.782C12.3655 149.782 11.7064 150.093 11.2845 150.714C10.8626 151.329 10.6517 152.135 10.6517 153.131V153.667ZM19.0544 154.968V148.798H20.3552V154.599C20.3552 155.419 20.5632 156.02 20.9792 156.4C21.4011 156.775 21.9606 156.963 22.6579 156.963C23.3845 156.963 23.9675 156.74 24.4069 156.295C24.8464 155.85 25.0661 155.252 25.0661 154.502V148.798H26.3669V158H25.0749V156.743H25.0222C24.8405 157.153 24.5212 157.49 24.0641 157.754C23.6071 158.018 23.027 158.149 22.3239 158.149C21.3395 158.149 20.5485 157.874 19.9509 157.323C19.3532 156.772 19.0544 155.987 19.0544 154.968ZM28.9336 158V148.798H30.2168V149.94H30.252C30.334 149.765 30.4219 149.615 30.5157 149.492C30.6094 149.363 30.7413 149.229 30.9112 149.088C31.0811 148.947 31.3067 148.842 31.5879 148.771C31.875 148.695 32.209 148.657 32.5899 148.657C32.7305 148.657 32.918 148.669 33.1524 148.692V149.896C33.0293 149.873 32.792 149.861 32.4405 149.861C31.667 149.861 31.1016 150.072 30.7442 150.494C30.3926 150.91 30.2168 151.479 30.2168 152.199V158H28.9336ZM37.0906 155.557H38.3562C38.4207 156.008 38.6345 156.374 38.9978 156.655C39.3611 156.931 39.8679 157.068 40.5183 157.068C41.2507 157.068 41.8045 156.925 42.1795 156.638C42.5603 156.345 42.7507 155.961 42.7507 155.486C42.7507 155.334 42.7273 155.193 42.6804 155.064C42.6336 154.936 42.5779 154.827 42.5134 154.739C42.4548 154.651 42.3582 154.566 42.2234 154.484C42.0945 154.402 41.9773 154.338 41.8718 154.291C41.7722 154.244 41.6228 154.194 41.4236 154.142C41.2302 154.089 41.0691 154.048 40.9402 154.019C40.8113 153.989 40.6267 153.951 40.3865 153.904C40.0935 153.84 39.8504 153.784 39.657 153.737C39.4695 153.69 39.2556 153.629 39.0154 153.553C38.7752 153.477 38.5789 153.397 38.4265 153.315C38.2742 153.233 38.116 153.131 37.9519 153.008C37.7937 152.879 37.6677 152.741 37.574 152.595C37.4861 152.442 37.4129 152.264 37.3543 152.059C37.2957 151.854 37.2664 151.625 37.2664 151.373C37.2664 150.916 37.3572 150.512 37.5388 150.16C37.7205 149.803 37.9666 149.519 38.2771 149.308C38.5935 149.091 38.9451 148.927 39.3318 148.815C39.7244 148.704 40.1463 148.648 40.5974 148.648C41.6287 148.648 42.4197 148.909 42.9705 149.431C43.5271 149.946 43.8054 150.591 43.8054 151.364H42.5838C42.572 151.165 42.5281 150.978 42.4519 150.802C42.3816 150.62 42.2732 150.444 42.1267 150.274C41.9802 150.104 41.7693 149.97 41.4939 149.87C41.2185 149.765 40.8992 149.712 40.5359 149.712C39.95 149.712 39.4695 149.847 39.0945 150.116C38.7254 150.386 38.5408 150.761 38.5408 151.241C38.5408 151.452 38.5877 151.64 38.6814 151.804C38.7752 151.962 38.8718 152.088 38.9714 152.182C39.0711 152.275 39.2439 152.366 39.49 152.454C39.742 152.536 39.9265 152.592 40.0437 152.621C40.1609 152.645 40.3806 152.688 40.7029 152.753C40.7556 152.765 40.7966 152.773 40.8259 152.779C41.2244 152.85 41.5584 152.92 41.8279 152.99C42.1033 153.061 42.3904 153.163 42.6892 153.298C42.988 153.427 43.2283 153.576 43.4099 153.746C43.5916 153.916 43.741 154.136 43.8582 154.405C43.9754 154.675 44.0339 154.985 44.0339 155.337C44.0339 156.228 43.7058 156.919 43.0496 157.411C42.3933 157.903 41.532 158.149 40.4656 158.149C39.4519 158.149 38.6345 157.915 38.0134 157.446C37.3982 156.972 37.0906 156.342 37.0906 155.557ZM45.0275 149.896V148.798H46.3195V146.486H47.6114V148.798H49.5187V149.896H47.6114V155.557C47.6114 156.113 47.7198 156.488 47.9366 156.682C48.1593 156.875 48.5665 156.972 49.1583 156.972C49.3634 156.972 49.5099 156.966 49.5978 156.954V158.018C49.3927 158.059 49.1437 158.079 48.8507 158.079C48.3234 158.079 47.8927 158.029 47.5587 157.93C47.2306 157.83 46.9728 157.666 46.7853 157.438C46.6036 157.209 46.4806 156.945 46.4161 156.646C46.3517 156.342 46.3195 155.952 46.3195 155.478V149.896H45.0275ZM50.6968 155.372C50.6968 154.558 50.9721 153.913 51.5229 153.438C52.0796 152.958 52.8735 152.718 53.9048 152.718H56.4096V151.575C56.4096 150.397 55.727 149.809 54.3618 149.809C53.1255 149.809 52.4429 150.318 52.3139 151.338H51.0571C51.104 150.512 51.4116 149.858 51.98 149.378C52.5483 148.892 53.3657 148.648 54.4321 148.648C55.4751 148.648 56.2837 148.889 56.8579 149.369C57.4321 149.844 57.7192 150.573 57.7192 151.558V158H56.4624V156.726H56.4272C56.1811 157.136 55.8296 157.476 55.3725 157.745C54.9155 158.015 54.3589 158.149 53.7026 158.149C52.8061 158.149 52.0796 157.897 51.5229 157.394C50.9721 156.884 50.6968 156.21 50.6968 155.372ZM52.0327 155.346C52.0327 155.885 52.2231 156.301 52.604 156.594C52.9848 156.881 53.4536 157.024 54.0102 157.024C54.6958 157.024 55.2671 156.819 55.7241 156.409C56.1811 155.993 56.4096 155.475 56.4096 154.854V153.799H53.9487C53.3042 153.799 52.8237 153.939 52.5073 154.221C52.1909 154.496 52.0327 154.871 52.0327 155.346ZM60.1278 158V145.37H61.4198V153.061H61.4725L65.5067 148.78H67.0272L63.3006 152.771L67.2557 158H65.6912L62.3602 153.597L61.4198 154.52V158H60.1278ZM67.6955 153.887V153.008C67.6955 152.152 67.8273 151.402 68.091 150.758C68.3605 150.113 68.7795 149.601 69.3479 149.22C69.9162 148.839 70.6076 148.648 71.4221 148.648C72.6408 148.648 73.5666 149.041 74.1994 149.826C74.8322 150.611 75.1486 151.666 75.1486 152.99V153.72H68.9963V153.975C68.9963 154.385 69.0461 154.769 69.1457 155.126C69.2453 155.478 69.3947 155.797 69.5939 156.084C69.7932 156.365 70.0568 156.588 70.385 156.752C70.7189 156.916 71.0998 156.998 71.5275 156.998C72.1604 156.998 72.6467 156.86 72.9865 156.585C73.3322 156.304 73.5549 155.961 73.6545 155.557H75.0168C74.9641 155.867 74.8615 156.166 74.7092 156.453C74.5568 156.734 74.3488 157.01 74.0852 157.279C73.8215 157.543 73.4699 157.754 73.0305 157.912C72.591 158.07 72.093 158.149 71.5363 158.149C70.2824 158.149 69.3273 157.763 68.6711 156.989C68.0207 156.21 67.6955 155.176 67.6955 153.887ZM68.9963 152.604H73.8479V152.577C73.8479 151.745 73.6311 151.071 73.1975 150.556C72.7639 150.04 72.1721 149.782 71.4221 149.782C70.6779 149.782 70.0861 150.043 69.6467 150.564C69.2131 151.08 68.9963 151.751 68.9963 152.577V152.604ZM76.441 155.557H77.7066C77.7711 156.008 77.9849 156.374 78.3482 156.655C78.7115 156.931 79.2183 157.068 79.8687 157.068C80.6011 157.068 81.1548 156.925 81.5298 156.638C81.9107 156.345 82.1011 155.961 82.1011 155.486C82.1011 155.334 82.0777 155.193 82.0308 155.064C81.9839 154.936 81.9283 154.827 81.8638 154.739C81.8052 154.651 81.7086 154.566 81.5738 154.484C81.4449 154.402 81.3277 154.338 81.2222 154.291C81.1226 154.244 80.9732 154.194 80.774 154.142C80.5806 154.089 80.4195 154.048 80.2906 154.019C80.1617 153.989 79.9771 153.951 79.7369 153.904C79.4439 153.84 79.2007 153.784 79.0074 153.737C78.8199 153.69 78.606 153.629 78.3658 153.553C78.1255 153.477 77.9293 153.397 77.7769 153.315C77.6246 153.233 77.4664 153.131 77.3023 153.008C77.1441 152.879 77.0181 152.741 76.9244 152.595C76.8365 152.442 76.7632 152.264 76.7047 152.059C76.6461 151.854 76.6168 151.625 76.6168 151.373C76.6168 150.916 76.7076 150.512 76.8892 150.16C77.0709 149.803 77.317 149.519 77.6275 149.308C77.9439 149.091 78.2955 148.927 78.6822 148.815C79.0748 148.704 79.4966 148.648 79.9478 148.648C80.9791 148.648 81.7701 148.909 82.3209 149.431C82.8775 149.946 83.1558 150.591 83.1558 151.364H81.9341C81.9224 151.165 81.8785 150.978 81.8023 150.802C81.732 150.62 81.6236 150.444 81.4771 150.274C81.3306 150.104 81.1197 149.97 80.8443 149.87C80.5689 149.765 80.2496 149.712 79.8863 149.712C79.3004 149.712 78.8199 149.847 78.4449 150.116C78.0757 150.386 77.8912 150.761 77.8912 151.241C77.8912 151.452 77.938 151.64 78.0318 151.804C78.1255 151.962 78.2222 152.088 78.3218 152.182C78.4214 152.275 78.5943 152.366 78.8404 152.454C79.0923 152.536 79.2769 152.592 79.3941 152.621C79.5113 152.645 79.731 152.688 80.0533 152.753C80.106 152.765 80.147 152.773 80.1763 152.779C80.5748 152.85 80.9088 152.92 81.1783 152.99C81.4537 153.061 81.7408 153.163 82.0396 153.298C82.3384 153.427 82.5787 153.576 82.7603 153.746C82.942 153.916 83.0914 154.136 83.2086 154.405C83.3257 154.675 83.3843 154.985 83.3843 155.337C83.3843 156.228 83.0562 156.919 82.4 157.411C81.7437 157.903 80.8824 158.149 79.816 158.149C78.8023 158.149 77.9849 157.915 77.3638 157.446C76.7486 156.972 76.441 156.342 76.441 155.557ZM87.4368 148.798H88.9046L90.6624 156.26H90.7239L92.8772 148.798H94.0989L96.3138 156.26H96.3753L98.1682 148.798H99.469L96.9905 158H95.7337L93.5188 150.688H93.4837L91.3128 158H90.0384L87.4368 148.798ZM100.788 146.539C100.788 146.293 100.873 146.085 101.043 145.915C101.213 145.745 101.418 145.66 101.658 145.66C101.916 145.66 102.13 145.745 102.299 145.915C102.469 146.079 102.554 146.287 102.554 146.539C102.554 146.791 102.469 147.002 102.299 147.172C102.13 147.342 101.916 147.427 101.658 147.427C101.418 147.427 101.213 147.342 101.043 147.172C100.873 147.002 100.788 146.791 100.788 146.539ZM101.025 158V148.798H102.317V158H101.025ZM105.033 158V145.37H106.325V158H105.033ZM108.874 158V145.37H110.166V158H108.874ZM115.37 155.372C115.37 154.558 115.646 153.913 116.196 153.438C116.753 152.958 117.547 152.718 118.578 152.718H121.083V151.575C121.083 150.397 120.4 149.809 119.035 149.809C117.799 149.809 117.116 150.318 116.987 151.338H115.731C115.777 150.512 116.085 149.858 116.653 149.378C117.222 148.892 118.039 148.648 119.106 148.648C120.149 148.648 120.957 148.889 121.531 149.369C122.106 149.844 122.393 150.573 122.393 151.558V158H121.136V156.726H121.101C120.855 157.136 120.503 157.476 120.046 157.745C119.589 158.015 119.032 158.149 118.376 158.149C117.48 158.149 116.753 157.897 116.196 157.394C115.646 156.884 115.37 156.21 115.37 155.372ZM116.706 155.346C116.706 155.885 116.897 156.301 117.277 156.594C117.658 156.881 118.127 157.024 118.684 157.024C119.369 157.024 119.941 156.819 120.398 156.409C120.855 155.993 121.083 155.475 121.083 154.854V153.799H118.622C117.978 153.799 117.497 153.939 117.181 154.221C116.864 154.496 116.706 154.871 116.706 155.346ZM124.784 161.19V148.789H126.014V150.116H126.049C126.237 149.694 126.571 149.346 127.051 149.07C127.538 148.789 128.153 148.648 128.897 148.648C129.946 148.648 130.795 149.015 131.446 149.747C132.102 150.474 132.43 151.467 132.43 152.727V154.08C132.43 155.352 132.102 156.348 131.446 157.068C130.789 157.789 129.919 158.149 128.835 158.149C127.54 158.149 126.632 157.672 126.111 156.717H126.076V161.19H124.784ZM126.076 153.966C126.076 154.81 126.307 155.527 126.77 156.119C127.239 156.705 127.869 156.998 128.66 156.998C129.404 156.998 130.001 156.731 130.453 156.198C130.91 155.659 131.138 154.883 131.138 153.869V152.902C131.138 151.912 130.913 151.145 130.461 150.6C130.016 150.055 129.404 149.782 128.624 149.782C127.839 149.782 127.218 150.061 126.761 150.617C126.304 151.174 126.076 151.889 126.076 152.762V153.966ZM134.426 161.19V148.789H135.656V150.116H135.691C135.879 149.694 136.213 149.346 136.693 149.07C137.18 148.789 137.795 148.648 138.539 148.648C139.588 148.648 140.437 149.015 141.088 149.747C141.744 150.474 142.072 151.467 142.072 152.727V154.08C142.072 155.352 141.744 156.348 141.088 157.068C140.431 157.789 139.561 158.149 138.477 158.149C137.182 158.149 136.274 157.672 135.753 156.717H135.718V161.19H134.426ZM135.718 153.966C135.718 154.81 135.949 155.527 136.412 156.119C136.881 156.705 137.511 156.998 138.302 156.998C139.046 156.998 139.643 156.731 140.095 156.198C140.552 155.659 140.78 154.883 140.78 153.869V152.902C140.78 151.912 140.555 151.145 140.103 150.6C139.658 150.055 139.046 149.782 138.266 149.782C137.481 149.782 136.86 150.061 136.403 150.617C135.946 151.174 135.718 151.889 135.718 152.762V153.966ZM143.611 153.887V153.008C143.611 152.152 143.742 151.402 144.006 150.758C144.276 150.113 144.694 149.601 145.263 149.22C145.831 148.839 146.523 148.648 147.337 148.648C148.556 148.648 149.482 149.041 150.114 149.826C150.747 150.611 151.064 151.666 151.064 152.99V153.72H144.911V153.975C144.911 154.385 144.961 154.769 145.061 155.126C145.16 155.478 145.31 155.797 145.509 156.084C145.708 156.365 145.972 156.588 146.3 156.752C146.634 156.916 147.015 156.998 147.443 156.998C148.075 156.998 148.562 156.86 148.902 156.585C149.247 156.304 149.47 155.961 149.569 155.557H150.932C150.879 155.867 150.777 156.166 150.624 156.453C150.472 156.734 150.264 157.01 150 157.279C149.736 157.543 149.385 157.754 148.945 157.912C148.506 158.07 148.008 158.149 147.451 158.149C146.197 158.149 145.242 157.763 144.586 156.989C143.936 156.21 143.611 155.176 143.611 153.887ZM144.911 152.604H149.763V152.577C149.763 151.745 149.546 151.071 149.112 150.556C148.679 150.04 148.087 149.782 147.337 149.782C146.593 149.782 146.001 150.043 145.562 150.564C145.128 151.08 144.911 151.751 144.911 152.577V152.604ZM152.444 155.372C152.444 154.558 152.719 153.913 153.27 153.438C153.827 152.958 154.621 152.718 155.652 152.718H158.157V151.575C158.157 150.397 157.474 149.809 156.109 149.809C154.873 149.809 154.19 150.318 154.061 151.338H152.804C152.851 150.512 153.159 149.858 153.727 149.378C154.295 148.892 155.113 148.648 156.179 148.648C157.222 148.648 158.031 148.889 158.605 149.369C159.179 149.844 159.466 150.573 159.466 151.558V158H158.21V156.726H158.174C157.928 157.136 157.577 157.476 157.12 157.745C156.663 158.015 156.106 158.149 155.45 158.149C154.553 158.149 153.827 157.897 153.27 157.394C152.719 156.884 152.444 156.21 152.444 155.372ZM153.78 155.346C153.78 155.885 153.97 156.301 154.351 156.594C154.732 156.881 155.201 157.024 155.757 157.024C156.443 157.024 157.014 156.819 157.471 156.409C157.928 155.993 158.157 155.475 158.157 154.854V153.799H155.696C155.051 153.799 154.571 153.939 154.254 154.221C153.938 154.496 153.78 154.871 153.78 155.346ZM161.998 158V148.798H163.281V149.94H163.316C163.398 149.765 163.486 149.615 163.58 149.492C163.674 149.363 163.806 149.229 163.975 149.088C164.145 148.947 164.371 148.842 164.652 148.771C164.939 148.695 165.273 148.657 165.654 148.657C165.795 148.657 165.982 148.669 166.217 148.692V149.896C166.094 149.873 165.856 149.861 165.505 149.861C164.731 149.861 164.166 150.072 163.808 150.494C163.457 150.91 163.281 151.479 163.281 152.199V158H161.998ZM170.805 158V145.37H172.097V150.046H172.141C172.311 149.671 172.616 149.346 173.055 149.07C173.495 148.789 174.06 148.648 174.752 148.648C175.777 148.648 176.603 148.982 177.23 149.65C177.863 150.318 178.179 151.18 178.179 152.234V158H176.879V152.489C176.879 151.692 176.679 151.051 176.281 150.564C175.882 150.078 175.308 149.835 174.558 149.835C173.779 149.835 173.172 150.075 172.739 150.556C172.311 151.03 172.097 151.687 172.097 152.524V158H170.805ZM180.113 153.887V153.008C180.113 152.152 180.245 151.402 180.509 150.758C180.778 150.113 181.197 149.601 181.766 149.22C182.334 148.839 183.025 148.648 183.84 148.648C185.059 148.648 185.984 149.041 186.617 149.826C187.25 150.611 187.566 151.666 187.566 152.99V153.72H181.414V153.975C181.414 154.385 181.464 154.769 181.563 155.126C181.663 155.478 181.812 155.797 182.012 156.084C182.211 156.365 182.475 156.588 182.803 156.752C183.137 156.916 183.518 156.998 183.945 156.998C184.578 156.998 185.064 156.86 185.404 156.585C185.75 156.304 185.973 155.961 186.072 155.557H187.435C187.382 155.867 187.279 156.166 187.127 156.453C186.975 156.734 186.767 157.01 186.503 157.279C186.239 157.543 185.888 157.754 185.448 157.912C185.009 158.07 184.511 158.149 183.954 158.149C182.7 158.149 181.745 157.763 181.089 156.989C180.438 156.21 180.113 155.176 180.113 153.887ZM181.414 152.604H186.266V152.577C186.266 151.745 186.049 151.071 185.615 150.556C185.182 150.04 184.59 149.782 183.84 149.782C183.096 149.782 182.504 150.043 182.064 150.564C181.631 151.08 181.414 151.751 181.414 152.577V152.604ZM189.632 158V148.798H190.915V149.94H190.951C191.033 149.765 191.12 149.615 191.214 149.492C191.308 149.363 191.44 149.229 191.61 149.088C191.78 148.947 192.005 148.842 192.286 148.771C192.574 148.695 192.908 148.657 193.288 148.657C193.429 148.657 193.617 148.669 193.851 148.692V149.896C193.728 149.873 193.491 149.861 193.139 149.861C192.366 149.861 191.8 150.072 191.443 150.494C191.091 150.91 190.915 151.479 190.915 152.199V158H189.632ZM194.704 153.887V153.008C194.704 152.152 194.836 151.402 195.099 150.758C195.369 150.113 195.788 149.601 196.356 149.22C196.924 148.839 197.616 148.648 198.43 148.648C199.649 148.648 200.575 149.041 201.208 149.826C201.841 150.611 202.157 151.666 202.157 152.99V153.72H196.005V153.975C196.005 154.385 196.054 154.769 196.154 155.126C196.254 155.478 196.403 155.797 196.602 156.084C196.801 156.365 197.065 156.588 197.393 156.752C197.727 156.916 198.108 156.998 198.536 156.998C199.169 156.998 199.655 156.86 199.995 156.585C200.341 156.304 200.563 155.961 200.663 155.557H202.025C201.972 155.867 201.87 156.166 201.717 156.453C201.565 156.734 201.357 157.01 201.093 157.279C200.83 157.543 200.478 157.754 200.039 157.912C199.599 158.07 199.101 158.149 198.545 158.149C197.291 158.149 196.336 157.763 195.679 156.989C195.029 156.21 194.704 155.176 194.704 153.887ZM196.005 152.604H200.856V152.577C200.856 151.745 200.639 151.071 200.206 150.556C199.772 150.04 199.18 149.782 198.43 149.782C197.686 149.782 197.094 150.043 196.655 150.564C196.221 151.08 196.005 151.751 196.005 152.577V152.604Z" fill="#AAAAAA"/>
<defs>
<clipPath id="clip0">
<rect width="120" height="120" fill="white" transform="translate(41)"/>
</clipPath>
</defs>
</svg>
