<svg width="50" height="75" viewBox="0 0 50 75" fill="none" xmlns="http://www.w3.org/2000/svg">
<rect width="50" height="50" rx="25" fill="#3375BB"/>
<path d="M9.58555 68.6196H10.8741C10.9164 69.0386 11.1132 69.3856 11.4645 69.6606C11.8157 69.9315 12.2939 70.0669 12.899 70.0669C13.4745 70.0669 13.9295 69.9399 14.2638 69.686C14.5981 69.4321 14.7652 69.0872 14.7652 68.6514C14.7652 68.3128 14.6531 68.042 14.4288 67.8389C14.2088 67.6357 13.8575 67.4749 13.3751 67.3564L11.9151 66.9883C11.6274 66.9163 11.365 66.8211 11.128 66.7026C10.891 66.5841 10.671 66.436 10.4679 66.2583C10.269 66.0763 10.1124 65.8521 9.99814 65.5854C9.88812 65.3146 9.83311 65.012 9.83311 64.6777C9.83311 64.1488 9.97699 63.6896 10.2647 63.3003C10.5567 62.9067 10.9312 62.6147 11.3883 62.4243C11.8495 62.2339 12.3574 62.1387 12.9117 62.1387C13.4576 62.1387 13.957 62.2318 14.4098 62.418C14.8626 62.5999 15.235 62.8835 15.527 63.2686C15.8189 63.6536 15.9692 64.1107 15.9776 64.6396H14.7145C14.6764 64.2292 14.5007 63.8927 14.1876 63.6304C13.8787 63.368 13.447 63.2368 12.8927 63.2368C12.3679 63.2368 11.9448 63.3574 11.6231 63.5986C11.3058 63.8356 11.1471 64.1636 11.1471 64.5825C11.1471 65.1919 11.5512 65.5939 12.3595 65.7886L13.8067 66.1567C14.0818 66.2244 14.3294 66.3027 14.5494 66.3916C14.7695 66.4805 14.9768 66.5926 15.1715 66.728C15.3704 66.8592 15.5333 67.0094 15.6603 67.1787C15.7914 67.3438 15.8951 67.5426 15.9713 67.7754C16.0475 68.0039 16.0855 68.2599 16.0855 68.5435C16.0855 69.3729 15.7787 70.0203 15.1651 70.4858C14.5558 70.9471 13.7623 71.1777 12.7848 71.1777C12.332 71.1777 11.9215 71.1248 11.5533 71.019C11.1852 70.9175 10.8826 70.7821 10.6456 70.6128C10.4086 70.4435 10.2097 70.2467 10.0489 70.0225C9.88812 69.7939 9.77174 69.5633 9.6998 69.3306C9.6321 69.0978 9.59401 68.8608 9.58555 68.6196ZM16.8602 65.3696V64.335H17.7933V62.6592H19.0565V64.335H20.3705V65.3696H19.0565V69.0576C19.0565 69.4342 19.1306 69.6903 19.2787 69.8257C19.431 69.9569 19.7061 70.0225 20.1039 70.0225C20.197 70.0225 20.2985 70.0182 20.4086 70.0098V71.0063C20.2393 71.036 20.0319 71.0508 19.7865 71.0508C19.3887 71.0508 19.0586 71.0148 18.7962 70.9429C18.5339 70.8667 18.3286 70.7461 18.1805 70.5811C18.0324 70.416 17.9287 70.2192 17.8695 69.9907C17.8102 69.758 17.7806 69.4681 17.7806 69.1211V65.3696H16.8602ZM21.1515 69.083C21.1515 68.4821 21.3546 68.006 21.7609 67.6548C22.1713 67.2993 22.7532 67.1216 23.5065 67.1216H25.2267V66.3726C25.2267 65.632 24.795 65.2617 23.9318 65.2617C23.132 65.2617 22.6982 65.596 22.6305 66.2646H21.399C21.4287 65.6383 21.6551 65.139 22.0782 64.7666C22.5057 64.39 23.1404 64.2017 23.9825 64.2017C24.7781 64.2017 25.3981 64.3794 25.8424 64.7349C26.2867 65.0903 26.5089 65.6405 26.5089 66.3853V71H25.2902V70.124H25.2457C25.0722 70.4118 24.8247 70.6488 24.503 70.835C24.1857 71.0169 23.7963 71.1079 23.3351 71.1079C22.6834 71.1079 22.1565 70.9238 21.7545 70.5557C21.3525 70.1875 21.1515 69.6966 21.1515 69.083ZM22.4464 69.0195C22.4464 69.3665 22.567 69.6331 22.8082 69.8193C23.0537 70.0013 23.3541 70.0923 23.7096 70.0923C24.1412 70.0923 24.5009 69.9632 24.7887 69.7051C25.0807 69.4427 25.2267 69.119 25.2267 68.7339V68.0293H23.6842C23.2737 68.0293 22.9648 68.1182 22.7574 68.2959C22.5501 68.4736 22.4464 68.7148 22.4464 69.0195ZM28.077 71V61.8784H29.3593V67.2612H29.4164L31.9935 64.3096H33.4598L30.889 67.2104L33.6312 71H32.1141L29.9369 67.9785L29.3593 68.5752V71H28.077ZM33.8283 67.9722V67.3818C33.8283 66.417 34.0737 65.6447 34.5646 65.0649C35.0597 64.4852 35.7579 64.1953 36.6593 64.1953C37.5691 64.1953 38.2653 64.4852 38.7477 65.0649C39.2343 65.6405 39.4777 66.4085 39.4777 67.3691V67.9531H35.1041V68.1436C35.1041 68.6852 35.2417 69.1401 35.5167 69.5083C35.796 69.8722 36.2023 70.0542 36.7355 70.0542C37.146 70.0542 37.4634 69.9653 37.6876 69.7876C37.9162 69.6056 38.06 69.3813 38.1193 69.1147H39.3952C39.3613 69.3517 39.2872 69.5802 39.173 69.8003C39.063 70.0203 38.9064 70.2319 38.7033 70.4351C38.5044 70.6382 38.2356 70.8032 37.8971 70.9302C37.5586 71.0529 37.1735 71.1143 36.7418 71.1143C35.8024 71.1143 35.0809 70.8307 34.5773 70.2637C34.0779 69.6966 33.8283 68.9328 33.8283 67.9722ZM35.1041 67.0137H38.2145V66.9946C38.2145 66.4741 38.0748 66.0509 37.7955 65.7251C37.5162 65.395 37.1375 65.23 36.6593 65.23C36.1811 65.23 35.8024 65.395 35.5231 65.7251C35.2438 66.0552 35.1041 66.4784 35.1041 66.9946V67.0137Z" fill="#3375BB"/>
<path d="M25 28.3208V15.9999" stroke="white" stroke-width="1.5" stroke-miterlimit="10" stroke-linecap="round" stroke-linejoin="round"/>
<path d="M31 34L19 34" stroke="white" stroke-width="1.5" stroke-miterlimit="10" stroke-linecap="round" stroke-linejoin="round"/>
<path d="M20 22.1606L25 16.0002L30 22.1606" stroke="white" stroke-width="1.5" stroke-miterlimit="10" stroke-linecap="round" stroke-linejoin="round"/>
</svg>
