<svg width="53" height="75" viewBox="0 0 53 75" fill="none" xmlns="http://www.w3.org/2000/svg">
<path d="M2 25C2 11.1929 13.1929 0 27 0C40.8071 0 52 11.1929 52 25C52 38.8071 40.8071 50 27 50C13.1929 50 2 38.8071 2 25Z" fill="#3375BB"/>
<path d="M26.9999 16V28.7059" stroke="white" stroke-width="1.5" stroke-miterlimit="10" stroke-linecap="round" stroke-linejoin="round"/>
<path d="M33.0001 34L21.0001 34" stroke="white" stroke-width="1.5" stroke-miterlimit="10" stroke-linecap="round" stroke-linejoin="round"/>
<path d="M22 22.353L27 28.706L32 22.353" stroke="white" stroke-width="1.5" stroke-miterlimit="10" stroke-linecap="round" stroke-linejoin="round"/>
<path d="M0.48629 62.3354H1.96529L3.47604 68.918H3.52047L5.17721 62.3354H6.43404L8.08443 68.918H8.13522L9.64596 62.3354H11.1186L8.76363 71H7.57662L5.82467 64.4619H5.78024L4.02828 71H2.84127L0.48629 62.3354ZM12.1789 63.2051C12.0308 63.0612 11.9568 62.8835 11.9568 62.6719C11.9568 62.4603 12.0308 62.2847 12.1789 62.145C12.3313 62.0054 12.5196 61.9355 12.7439 61.9355C12.9808 61.9355 13.1734 62.0054 13.3215 62.145C13.4738 62.2804 13.55 62.4561 13.55 62.6719C13.55 62.8877 13.4738 63.0654 13.3215 63.2051C13.1734 63.3447 12.9808 63.4146 12.7439 63.4146C12.5196 63.4146 12.3313 63.3447 12.1789 63.2051ZM12.1154 71V64.3096H13.3913V71H12.1154ZM14.5405 65.3696V64.335H15.4736V62.6592H16.7368V64.335H18.0508V65.3696H16.7368V69.0576C16.7368 69.4342 16.8109 69.6903 16.959 69.8257C17.1113 69.9569 17.3864 70.0225 17.7842 70.0225C17.8773 70.0225 17.9788 70.0182 18.0888 70.0098V71.0063C17.9196 71.036 17.7122 71.0508 17.4668 71.0508C17.069 71.0508 16.7389 71.0148 16.4765 70.9429C16.2142 70.8667 16.0089 70.7461 15.8608 70.5811C15.7127 70.416 15.609 70.2192 15.5498 69.9907C15.4905 69.758 15.4609 69.4681 15.4609 69.1211V65.3696H14.5405ZM19.219 71V61.8784H20.5012V65.2173H20.552C20.6663 64.9507 20.88 64.7158 21.1931 64.5127C21.5063 64.3053 21.9125 64.2017 22.4119 64.2017C23.1482 64.2017 23.7385 64.4408 24.1829 64.9189C24.6314 65.3971 24.8557 66.0256 24.8557 66.8042V71H23.5735V67.0835C23.5735 66.5418 23.4423 66.1144 23.1799 65.8013C22.9176 65.4881 22.5473 65.3315 22.0691 65.3315C21.5782 65.3315 21.1931 65.4839 20.9138 65.7886C20.6387 66.0933 20.5012 66.5249 20.5012 67.0835V71H19.219ZM26.1001 68.0547V67.2485C26.1001 66.3302 26.3265 65.5939 26.7793 65.0396C27.2321 64.481 27.8711 64.2017 28.6963 64.2017C29.1956 64.2017 29.6125 64.3011 29.9468 64.5C30.2853 64.6947 30.5138 64.9443 30.6323 65.249H30.6704V61.8784H31.9526V71H30.7148V69.9844H30.6704C30.5815 70.2891 30.3594 70.5514 30.0039 70.7715C29.6484 70.9873 29.2126 71.0952 28.6963 71.0952C27.8669 71.0952 27.2257 70.8201 26.7729 70.27C26.3244 69.7199 26.1001 68.9814 26.1001 68.0547ZM27.4014 67.8833C27.4014 68.5477 27.5389 69.0724 27.814 69.4575C28.089 69.8384 28.4974 70.0288 29.0391 70.0288C29.5511 70.0288 29.951 69.8426 30.2388 69.4702C30.5265 69.0978 30.6704 68.5731 30.6704 67.896V67.3755C30.6704 66.728 30.5223 66.2181 30.2261 65.8457C29.9341 65.4691 29.5299 65.2808 29.0137 65.2808C28.4805 65.2808 28.0785 65.4733 27.8076 65.8584C27.5368 66.2435 27.4014 66.7619 27.4014 67.4136V67.8833ZM33.6668 71V64.3096H34.9426V65.1348H34.9871C35.0421 65.012 35.1013 64.9062 35.1648 64.8174C35.2325 64.7243 35.3256 64.627 35.4441 64.5254C35.5668 64.4238 35.7255 64.3455 35.9202 64.2905C36.1191 64.2355 36.3497 64.208 36.6121 64.208C36.7686 64.208 36.9168 64.2186 37.0564 64.2397V65.3887C36.9422 65.3633 36.7517 65.3506 36.4851 65.3506C35.4695 65.3506 34.9617 65.8796 34.9617 66.9375V71H33.6668ZM37.5137 69.083C37.5137 68.4821 37.7168 68.006 38.1231 67.6548C38.5335 67.2993 39.1154 67.1216 39.8687 67.1216H41.5889V66.3726C41.5889 65.632 41.1572 65.2617 40.294 65.2617C39.4942 65.2617 39.0604 65.596 38.9927 66.2646H37.7612C37.7909 65.6383 38.0173 65.139 38.4404 64.7666C38.8679 64.39 39.5026 64.2017 40.3447 64.2017C41.1403 64.2017 41.7603 64.3794 42.2046 64.7349C42.6489 65.0903 42.8711 65.6405 42.8711 66.3853V71H41.6524V70.124H41.6079C41.4344 70.4118 41.1869 70.6488 40.8653 70.835C40.5479 71.0169 40.1585 71.1079 39.6973 71.1079C39.0456 71.1079 38.5187 70.9238 38.1167 70.5557C37.7147 70.1875 37.5137 69.6966 37.5137 69.083ZM38.8086 69.0195C38.8086 69.3665 38.9292 69.6331 39.1704 69.8193C39.4159 70.0013 39.7163 70.0923 40.0718 70.0923C40.5034 70.0923 40.8631 69.9632 41.1509 69.7051C41.4429 69.4427 41.5889 69.119 41.5889 68.7339V68.0293H40.0464C39.6359 68.0293 39.327 68.1182 39.1196 68.2959C38.9123 68.4736 38.8086 68.7148 38.8086 69.0195ZM43.5379 64.3096H44.9407L46.0642 69.4829H46.1214L47.5242 64.3096H48.7303L50.1775 69.4829H50.2283L51.3836 64.3096H52.6595L50.8885 71H49.5999L48.1463 65.9727H48.1145L46.6927 71H45.3914L43.5379 64.3096Z" fill="#3375BB"/>
</svg>
